<?xml version="1.0" encoding="UTF-8" standalone="no"?>
<!-- Created with Inkscape (http://www.inkscape.org/) -->
<svg xmlns:dc="http://purl.org/dc/elements/1.1/" xmlns:cc="http://creativecommons.org/ns#" xmlns:rdf="http://www.w3.org/1999/02/22-rdf-syntax-ns#" xmlns:svg="http://www.w3.org/2000/svg" xmlns="http://www.w3.org/2000/svg" xmlns:sodipodi="http://sodipodi.sourceforge.net/DTD/sodipodi-0.dtd" xmlns:inkscape="http://www.inkscape.org/namespaces/inkscape" width="400" height="400" id="svg3058" version="1.1" inkscape:version="0.48.1 " sodipodi:docname="ypf_logo.svg">
  <defs id="defs3060"/>
  <sodipodi:namedview id="base" pagecolor="#ffffff" bordercolor="#666666" borderopacity="1.0" inkscape:pageopacity="0.0" inkscape:pageshadow="2" inkscape:zoom="0.83387097" inkscape:cx="265.71429" inkscape:cy="201.42857" inkscape:document-units="px" inkscape:current-layer="layer1" showgrid="false" inkscape:window-width="1366" inkscape:window-height="706" inkscape:window-x="-8" inkscape:window-y="-8" inkscape:window-maximized="1"/>
  <metadata id="metadata3063">
    <rdf:RDF>
      <cc:Work rdf:about="">
        <dc:format>image/svg+xml</dc:format>
        <dc:type rdf:resource="http://purl.org/dc/dcmitype/StillImage"/>
        <dc:title/>
      </cc:Work>
    </rdf:RDF>
  </metadata>
  <g inkscape:label="Capa 1" inkscape:groupmode="layer" id="layer1" transform="translate(0,-652.36218)">
    <path sodipodi:type="arc" style="fill:#ffffff;fill-opacity:1;stroke:#008000;stroke-opacity:0" id="path3022" sodipodi:cx="-279.41974" sodipodi:cy="115.78336" sodipodi:rx="147.54871" sodipodi:ry="149.24466" d="m -131.87103,115.78336 a 147.54871,149.24466 0 1 1 -295.09741,0 147.54871,149.24466 0 1 1 295.09741,0 z" transform="matrix(1.2143697,0,0,1.2042888,543.09477,710.28281)"/>
    <path inkscape:connector-curvature="0" style="fill:#85bdde;fill-opacity:1;fill-rule:nonzero;stroke:none" d="m 204.85626,1022.0387 c -94.49862,0 -171.104168,-76.60558 -171.104168,-171.10421 0,-94.4995 76.605548,-171.10357 171.104168,-171.10357 94.4995,0 171.10356,76.60407 171.10356,171.10357 0,94.49863 -76.60406,171.10421 -171.10356,171.10421 m 0,-356.06136 c -102.14835,0 -184.955376,82.80999 -184.955376,184.95715 0,102.14834 82.807026,184.95541 184.955376,184.95541 102.15012,0 184.95715,-82.80707 184.95715,-184.95541 0,-102.14716 -82.80703,-184.95715 -184.95715,-184.95715" id="path2189"/>
    <path inkscape:connector-curvature="0" style="fill:#85bdde;fill-opacity:1;fill-rule:nonzero;stroke:none" d="m 204.85626,991.07695 c -77.39909,0 -140.142456,-62.74486 -140.142456,-140.14246 0,-77.39968 62.743366,-140.14216 140.142456,-140.14216 77.39997,0 140.14215,62.74248 140.14215,140.14216 0,77.3976 -62.74218,140.14246 -140.14215,140.14246 m 0,-294.95102 c -85.49765,0 -154.808562,69.30943 -154.808562,154.80856 0,85.49795 69.310912,154.80851 154.808562,154.80851 85.49913,0 154.80855,-69.31056 154.80855,-154.80851 0,-85.49913 -69.30942,-154.80856 -154.80855,-154.80856" id="path2191"/>
    <path inkscape:connector-curvature="0" style="fill:#211e1e;fill-opacity:1;fill-rule:nonzero;stroke:none" d="m 204.85527,722.30177 c -7.92887,0 -15.68827,0.71367 -23.22065,2.08698 l 0,253.09069 c 7.53238,1.37336 15.29178,2.09178 23.22065,2.09178 0.81726,0 1.63317,-0.009 2.44679,-0.024 l 0,-105.39009 26.47827,0 c 8.1478,0 13.44303,-15.48204 13.44303,-15.48204 l 0,-117.73925 c 0,-5.79355 -4.08675,-10.60011 -8.73654,-14.19626 -10.71948,-2.89541 -21.99647,-4.43783 -33.63155,-4.43783 z m -33.19978,4.32269 c -10.44472,2.78235 -20.3665,6.84688 -29.58714,12.01332 l -22.76487,80.57662 c 0,-0.74331 -9.98289,-27.0128 -17.14202,-45.75524 -5.855788,7.74983 -10.852694,16.18263 -14.85354,25.15891 l 25.07254,62.09605 0,79.63147 c 7.5135,7.76946 15.99619,14.59366 25.25486,20.2797 l 0,-106.43118 34.02017,-127.56965 z m 91.59684,9.66247 0,229.29433 c 8.99335,-4.58975 17.3706,-10.20654 24.98619,-16.69584 l 0,-78.39847 43.7738,0 c 0.97215,-6.37536 1.47768,-12.90347 1.47768,-19.55045 0,-0.72558 -0.007,-1.45063 -0.0192,-2.17333 l -44.14804,0 0,-51.60359 c 11.95206,8.69008 15.20857,32.59047 15.20858,32.59047 l 27.22188,0 c -6.77386,-40.884 -32.8225,-75.25515 -68.5009,-93.46312 z m -57.03933,13.61575 5.97788,0 4.48101,0 c 4.48121,0 4.48101,6.11221 4.48101,6.11221 l 0,84.32838 c 0,4.07391 -3.66541,5.15749 -3.66541,5.15749 l -11.27449,0 0,-95.59808 z" id="path2193" sodipodi:nodetypes="cccsccccccccccccccccccccccscccccccccccccc"/>
  </g>
</svg>